<?xml version="1.0" encoding="UTF-8" standalone="no"?>
<svg width="150" height="380" viewBox="0 0 150 380" version="1.1" xml:space="preserve" id="PROTO"
   sodipodi:docname="Demo.svg" inkscape:version="1.2.2 (732a01da63, 2022-12-09)"
   xmlns:inkscape="http://www.inkscape.org/namespaces/inkscape"
   xmlns:sodipodi="http://sodipodi.sourceforge.net/DTD/sodipodi-0.dtd" xmlns:xlink="http://www.w3.org/1999/xlink"
   xmlns="http://www.w3.org/2000/svg" xmlns:svg="http://www.w3.org/2000/svg">
   <sodipodi:namedview id="namedview16" pagecolor="#ffffff" bordercolor="#666666" borderopacity="1.0"
      inkscape:showpageshadow="2" inkscape:pageopacity="0.0" inkscape:pagecheckerboard="0" inkscape:deskcolor="#d1d1d1"
      showgrid="false" inkscape:zoom="3.5132042" inkscape:cx="39.707342" inkscape:cy="188.43197"
      inkscape:window-width="3840" inkscape:window-height="2054" inkscape:window-x="3829" inkscape:window-y="-11"
      inkscape:window-maximized="1" inkscape:current-layer="PROTO" />
   <defs id="defs18">
      <linearGradient inkscape:collect="always" id="linearGradient1040">
         <stop style="stop-color:#3829e0;stop-opacity:1;" offset="0" id="stop1036" />
         <stop style="stop-color:#d4e029;stop-opacity:1;" offset="1" id="stop1038" />
      </linearGradient>
      <linearGradient inkscape:collect="always" id="linearGradient982">
         <stop style="stop-color:#4e8dbf;stop-opacity:1;" offset="0" id="stop978" />
         <stop style="stop-color:#4e8dbf;stop-opacity:0;" offset="1" id="stop980" />
      </linearGradient>
      <linearGradient inkscape:collect="always" id="linearGradient974">
         <stop style="stop-color:#4e8dbf;stop-opacity:1;" offset="0" id="stop970" />
         <stop style="stop-color:#4e8dbf;stop-opacity:0;" offset="1" id="stop972" />
      </linearGradient>
      <linearGradient inkscape:collect="always" xlink:href="#linearGradient974" id="linearGradient976" x1="34"
         y1="273.49435" x2="66" y2="273.49435" gradientUnits="userSpaceOnUse" gradientTransform="translate(0,-14)" />
      <linearGradient inkscape:collect="always" xlink:href="#linearGradient982" id="linearGradient984" x1="84"
         y1="273.49435" x2="116" y2="273.49435" gradientUnits="userSpaceOnUse" gradientTransform="translate(0,-14)" />
      <linearGradient inkscape:collect="always" xlink:href="#linearGradient1040" id="linearGradient1042" x1="100"
         y1="285" x2="100" y2="310" gradientUnits="userSpaceOnUse" />
      <radialGradient inkscape:collect="always" id="radialGradient1050" cx="50" cy="305" r="16"
         gradientUnits="userSpaceOnUse">
         <stop style="stop-color:#4e8dbf;stop-opacity:0;" offset="0" id="stop1046" />
         <stop style="stop-color:#4e8dbf;stop-opacity:1;" offset="1" id="stop1044" />
      </radialGradient>
      <linearGradient inkscape:collect="always" xlink:href="#linearGradient974" id="linearGradient2199"
         gradientUnits="userSpaceOnUse" x1="34" y1="273.5" x2="66" y2="273.5"
         gradientTransform="translate(25,77)" />
   </defs>
   <rect id="panel" style="fill:#e6e6e6" x="0" y="0" width="150" height="380" />
   <rect
      id="fill-lin-copy"
      style="fill:url(#linearGradient2199);fill-opacity:1;stroke:none;stroke-width:0.46582;stroke-linejoin:round"
      width="32" height="32" x="59" y="334.0777" inkscape:label="fill-lin-copy" />
   <rect
      id="fill-none-stroke-lin"
      style="fill:none;fill-opacity:1;stroke:url(#linearGradient1042);stroke-width:1.83992;stroke-dasharray:none;stroke-opacity:1"
      width="30" height="30" x="85" y="289" inkscape:label="fill-none-stroke-lin" />
   <rect
      id="fill-rad"
      style="fill:url(#radialGradient1050);fill-opacity:1;stroke:none;stroke-width:0.46582;stroke-linejoin:round"
      width="32" height="32" x="34" y="289" inkscape:label="fill-rad" />
   <rect
      id="fill-lin-stroke-color"
      style="fill:url(#linearGradient984);fill-opacity:1;stroke:#e0af29;stroke-width:1.83992;stroke-dasharray:none;stroke-opacity:1"
      width="30" height="30" x="85" y="244" inkscape:label="fill-lin-stroke-color" />
   <rect
      id="fill-lin"
      style="fill:url(#linearGradient976);fill-opacity:1;stroke:none;stroke-width:0.46582;stroke-linejoin:round"
      width="32" height="32" x="34" y="243" inkscape:label="fill-lin" />
   <rect
      id="fill-color-stroke-color"
      style="fill:#4e8dbf;stroke:#29e038;stroke-width:1.83992;stroke-dasharray:none;stroke-opacity:1"
      width="30" height="30" x="85" y="200" inkscape:label="fill-color-stroke-color" />
   <rect
      id="fill-color" 
      style="fill:#4e8dbf;stroke:none;stroke-width:0.46582;stroke-linejoin:round" width="32"
      height="32" x="34" y="200" inkscape:label="fill-color" />
   <g id="LOGO">
      <circle id="logo-circle" style="fill:none;stroke:#272727;stroke-width:6;stroke-dasharray:none;stroke-opacity:1"
      cx="74.25" cy="95" r="30" inkscape:label="logo-circle" />
      <g>
         <path
            d="m 58.647949,91.308876 q 1.538086,0 2.645508,0.606445 1.107422,0.606446 1.696289,1.78418 0.588867,1.168945 0.588867,2.821289 0,1.652344 -0.588867,2.830078 -0.588867,1.168942 -1.696289,1.784182 -1.107422,0.60644 -2.645508,0.60644 h -4.139648 q -0.210938,0 -0.325196,-0.0703 -0.114257,-0.0703 -0.175781,-0.26367 -0.05273,-0.19336 -0.05273,-0.5625 0,-0.36914 0.05273,-0.5625 0.06152,-0.19336 0.175781,-0.26367 0.114258,-0.0791 0.325196,-0.0791 h 0.852539 v -6.829101 h -0.852539 q -0.210938,0 -0.325196,-0.07031 -0.114257,-0.07031 -0.175781,-0.263672 -0.05273,-0.193359 -0.05273,-0.5625 0,-0.36914 0.05273,-0.5625 0.06152,-0.193359 0.175781,-0.263671 0.114258,-0.0791 0.325196,-0.0791 z m -1.089844,8.542969 h 0.914063 q 1.362305,0 2.056641,-0.84375 0.694336,-0.852539 0.694336,-2.487305 0,-1.634766 -0.694336,-2.478516 -0.694336,-0.84375 -2.056641,-0.84375 h -0.914063 z"
            id="o--logo-text" />
         <path
            d="m 73.316895,91.308876 q 0.307617,0 0.439453,0.131836 0.131836,0.131836 0.131836,0.439453 v 2.654297 q 0,0.298828 -0.254883,0.430664 -0.254883,0.123047 -0.817383,0.123047 -0.544922,0 -0.74707,-0.123047 -0.202149,-0.123047 -0.202149,-0.430664 v -1.335938 h -3.515625 v 2.223633 h 2.144531 q 0.307618,0 0.430665,0.202149 0.123046,0.202148 0.123046,0.74707 0,0.544922 -0.123046,0.74707 -0.123047,0.19336 -0.430665,0.19336 h -2.144531 v 2.540039 h 3.603516 v -1.775391 q 0,-0.298828 0.254883,-0.421875 0.263672,-0.131836 0.852539,-0.131836 0.580078,0 0.791015,0.123047 0.210938,0.123047 0.210938,0.430664 v 3.093746 q 0,0.29883 -0.131836,0.43946 -0.131836,0.13183 -0.439453,0.13183 H 65.30127 q -0.210938,0 -0.325196,-0.0703 -0.114258,-0.0703 -0.175781,-0.26367 -0.05273,-0.19336 -0.05273,-0.5625 0,-0.36914 0.05273,-0.5625 0.06152,-0.19336 0.175781,-0.26367 0.114258,-0.0791 0.325196,-0.0791 h 0.852539 V 93.110634 H 65.30127 q -0.210938,0 -0.325196,-0.07031 -0.114258,-0.07031 -0.175781,-0.263672 -0.05273,-0.193359 -0.05273,-0.5625 0,-0.36914 0.05273,-0.5625 0.06152,-0.193359 0.175781,-0.263671 0.114258,-0.0791 0.325196,-0.0791 z"
            id="m--logo-text" />
         <path
            d="m 84.98877,91.308876 q 0.210937,0 0.325195,0.0791 0.114258,0.07031 0.166992,0.263671 0.06152,0.19336 0.06152,0.5625 0,0.369141 -0.06152,0.5625 -0.05273,0.19336 -0.166992,0.263672 -0.114258,0.07031 -0.325195,0.07031 h -0.47461 l 0.123047,6.829101 h 0.527344 q 0.210937,0 0.325195,0.0791 0.114258,0.0703 0.166992,0.26367 0.06152,0.19336 0.06152,0.5625 0,0.36914 -0.06152,0.5625 -0.05273,0.19336 -0.166992,0.26367 -0.114258,0.0703 -0.325195,0.0703 h -3.28711 q -0.210937,0 -0.325195,-0.0703 -0.114258,-0.0703 -0.175781,-0.26367 -0.05273,-0.19336 -0.05273,-0.5625 0,-0.36914 0.05273,-0.5625 0.06152,-0.19336 0.175781,-0.26367 0.114258,-0.0791 0.325195,-0.0791 h 0.808594 l -0.05273,-5.203125 -1.327149,3.585938 q -0.114257,0.307617 -0.316406,0.439453 -0.202148,0.123047 -0.571289,0.123047 -0.37793,0 -0.580078,-0.123047 -0.202149,-0.131836 -0.325195,-0.439453 l -1.335938,-3.55957 -0.05273,5.176757 h 0.817383 q 0.210937,0 0.325195,0.0791 0.114258,0.0703 0.166992,0.26367 0.06152,0.19336 0.06152,0.5625 0,0.36914 -0.06152,0.5625 -0.05273,0.19336 -0.166992,0.26367 -0.114258,0.0703 -0.325195,0.0703 h -3.28711 q -0.210937,0 -0.325195,-0.0703 -0.114258,-0.0703 -0.175781,-0.26367 -0.05273,-0.19336 -0.05273,-0.5625 0,-0.36914 0.05273,-0.5625 0.06152,-0.19336 0.175781,-0.26367 0.114258,-0.0791 0.325195,-0.0791 h 0.518555 l 0.131836,-6.829101 h -0.47461 q -0.210937,0 -0.325195,-0.07031 -0.114258,-0.07031 -0.175781,-0.263672 -0.05273,-0.193359 -0.05273,-0.5625 0,-0.36914 0.05273,-0.5625 0.06152,-0.193359 0.175781,-0.263671 0.114258,-0.0791 0.325195,-0.0791 h 2.496094 q 0.18457,0 0.298828,0.06152 0.123047,0.06152 0.175782,0.210938 l 1.608398,4.31543 1.599609,-4.31543 q 0.05273,-0.149414 0.166993,-0.210938 0.123046,-0.06152 0.307617,-0.06152 z"
            id="e--logo-text" />
         <path
            d="m 91.202637,91.115517 q 1.441406,0 2.540039,0.659179 1.098633,0.650391 1.696289,1.88086 0.606445,1.221679 0.606445,2.865234 0,1.643555 -0.606445,2.874024 -0.597656,1.221676 -1.696289,1.880856 -1.098633,0.65918 -2.540039,0.65918 -1.441407,0 -2.540039,-0.65918 -1.098633,-0.65918 -1.705078,-1.880856 -0.597657,-1.230469 -0.597657,-2.874024 0,-1.643555 0.597657,-2.865234 0.606445,-1.230469 1.705078,-1.88086 1.098632,-0.659179 2.540039,-0.659179 z m 0,1.995117 q -1.22168,0 -1.854492,0.878906 -0.632813,0.878906 -0.632813,2.53125 0,1.652344 0.632813,2.540039 0.632812,0.878906 1.854492,0.878906 1.221679,0 1.854492,-0.878906 0.632812,-0.887695 0.632812,-2.540039 0,-1.652344 -0.632812,-2.53125 -0.632813,-0.878906 -1.854492,-0.878906 z"
            id="d--logo-text" />
      </g>
   </g>
</svg>