<?xml version="1.0" encoding="UTF-8" standalone="no"?>
<svg version="1.1"
   width="150" height="380" viewBox="0 0 150 380"
   xmlns:xlink="http://www.w3.org/1999/xlink"
   xmlns="http://www.w3.org/2000/svg"
   xmlns:svg="http://www.w3.org/2000/svg">
   <defs>
      <linearGradient id="linearGradient1040">
         <stop style="stop-color:#3829e0;stop-opacity:1;" offset="0" />
         <stop style="stop-color:#d4e029;stop-opacity:1;" offset="1" />
      </linearGradient>
      <linearGradient id="linearGradient982">
         <stop style="stop-color:#4e8dbf;stop-opacity:1;" offset="0" />
         <stop style="stop-color:#4e8dbf;stop-opacity:0;" offset="1" />
      </linearGradient>
      <linearGradient id="linearGradient974">
         <stop style="stop-color:#4e8dbf;stop-opacity:1;" offset="0" />
         <stop style="stop-color:#4e8dbf;stop-opacity:0;" offset="1" />
      </linearGradient>
      <linearGradient xlink:href="#linearGradient974" id="linearGradient976" x1="34"
         y1="273.49435" x2="66" y2="273.49435" gradientUnits="userSpaceOnUse" gradientTransform="translate(0,-14)" />
      <linearGradient xlink:href="#linearGradient982" id="linearGradient984" x1="84"
         y1="273.49435" x2="116" y2="273.49435" gradientUnits="userSpaceOnUse" gradientTransform="translate(0,-14)" />
      <linearGradient xlink:href="#linearGradient1040" id="linearGradient1042" x1="100"
         y1="285" x2="100" y2="310" gradientUnits="userSpaceOnUse" />
      <radialGradient id="radialGradient1050" cx="50" cy="305" r="16"
         gradientUnits="userSpaceOnUse">
         <stop style="stop-color:#4e8dbf;stop-opacity:0;" offset="0" />
         <stop style="stop-color:#4e8dbf;stop-opacity:1;" offset="1" />
      </radialGradient>
      <linearGradient xlink:href="#linearGradient974" id="linearGradient2199"
         gradientUnits="userSpaceOnUse" x1="34" y1="273.5" x2="66" y2="273.5"
         gradientTransform="translate(25,77)" />
   </defs>

   <rect id="panel" style="fill:#e6e6e6" x="0" y="0" width="150" height="380" />
   <path id="svg_theme" fill="#4055bf" d="m 43.783087,7.4472758 0.236328,0.057292 0.136068,0.2076828 0.128907,0.057292 -0.100261,0.3652352 -0.322266,0.1933598 -1.31055,0.6302098 -0.200521,0.3509123 0.04297,0.3938811 0.451172,0.6803402 0.0931,0.307943 0.257813,-0.03581 0.279297,0.264975 v 0.264974 l 0.136068,0.05729 0.494142,0.938154 0.150391,0.222005 q -0.05729,0.264975 -0.05729,0.365236 l 0.02865,0.107422 -0.136068,0.200521 -0.229167,0.48698 q -0.422527,0.365235 -0.515626,0.572918 l -0.19336,0.02865 -0.02865,0.100261 -0.909507,0.708986 q -0.372397,0.372396 -0.558595,0.422527 l -0.859377,0.236328 q -0.128907,0.171876 -0.307944,0.264975 l -0.136071,-0.26498 v -0.164713 l -0.10026,-0.128907 0.279297,-0.207683 q 0.08594,-0.157552 0.121745,-0.186198 l 0.07162,-0.06445 q 0.03581,-0.02865 0.343751,-0.100261 0.164714,-0.164714 0.264974,-0.164714 h 0.107422 q 0.207683,-0.171875 0.293621,-0.257813 h 0.100261 l 0.02865,-0.07878 0.100261,-0.02865 0.06445,-0.214844 h 0.05729 l 0.128907,-0.207683 0.207682,-0.08594 0.05729,-0.179037 0.07162,-0.05729 0.136068,-0.444011 -0.10743,-0.229162 -0.293621,-0.866539 -0.687501,-0.48698 q -0.171876,-0.236329 -0.307944,-0.393881 l -0.05729,-0.236329 q -0.02865,-0.114583 -0.164714,-0.307943 l -0.07162,-0.02865 -0.100261,-0.279298 v -0.10026 q -0.05013,-0.2649747 -0.10026,-0.3509124 l 0.186198,-0.4726573 0.07162,0.028646 V 9.1302224 l 0.164714,-0.1289065 v -0.085938 q 0.257813,-0.1861984 0.365235,-0.3079434 h 0.136068 v 0.1002606 l 0.128906,-0.2649746 v 0.057292 q 0.0072,-0.042969 0.279298,-0.1575524 0.02148,-0.1074221 0.157552,-0.136068 0.222006,-0.2936205 0.236329,-0.3365893 l 0.136068,-0.028646 0.100261,0.028646 0.05729,-0.057292 h 0.236328 V 7.7695422 L 43.46082,7.6477971 q 0.06445,-0.00716 0.293621,-0.1432295 z m 10.140648,-1.2890654 0.10026,0.1575524 -0.02864,0.071615 0.207682,0.1074221 0.157553,-0.042969 0.06445,0.1718754 -0.03581,0.164714 -0.128907,0.1002606 q -0.06445,0.2936205 -0.100261,0.3795582 l 0.04297,0.1503909 -0.150391,0.028646 -0.08594,0.3079435 -0.128907,0.057292 v 0.136068 l -0.179037,0.1002606 0.02865,0.3079434 v 0.1289066 l -0.08594,0.064453 Q 53.5585,8.7435028 53.393786,9.1158995 l -0.365236,0.8378925 -0.29362,0.501303 -0.179037,0.05729 v 0.222006 l -0.687502,1.081382 -0.186198,0.472658 -0.515626,0.673178 -0.207683,0.164714 v 0.100261 l -0.222006,0.07161 h -0.07161 l -0.236329,0.365235 -0.128906,-0.02865 -0.222006,0.307943 q -0.272136,0.157553 -0.393881,0.279298 h -0.14323 l -0.136068,0.179037 q -0.401042,0.307943 -0.43685,0.393881 l 0.100261,0.128906 -0.207683,0.07878 q -0.05729,0.05729 -0.264974,0.186198 v 0.179037 l -0.100261,0.05729 h -0.08594 l -0.114583,0.150391 q -0.06445,0.08594 -0.128907,0.121745 l -0.200521,0.0931 -0.100261,-0.02865 -0.128906,0.05729 -0.19336,-0.229167 q -0.05013,-0.19336 -0.100261,-0.222006 v -0.472657 l -0.236329,-0.9668 0.128907,-0.236328 -0.365235,-0.601564 0.10026,-0.257813 q -0.01432,-0.136068 -0.128906,-0.264975 l 0.10026,-0.164714 -0.10026,-0.200521 h 0.05729 l -0.02865,-0.164714 0.02865,-0.179037 0.07161,-0.02865 V 11.600931 L 46.81239,11.393248 h 0.100261 l 0.02865,-0.05729 -0.02865,-0.207682 -0.150391,-0.02865 -0.05729,-0.164714 0.05729,-0.04297 v -0.393881 l 0.05013,-0.05729 -0.107422,-0.04297 -0.07162,-0.264975 -0.08594,-0.05729 -0.04297,0.02865 -0.107422,-0.07878 -0.128907,0.07878 H 46.13205 l -0.10026,0.157553 -0.128907,-0.02865 -0.136068,0.164714 -0.128907,-0.02865 0.04297,0.10026 -0.179037,0.100261 -0.186198,-0.171875 -0.07878,-0.293621 0.29362,-0.3723964 0.150391,0.035807 0.393881,-0.3723967 0.19336,-0.1002607 Q 46.51877,9.1302224 46.547416,9.1302224 h 0.05729 v 0.136068 h 0.07161 l -0.04297,-0.1002606 0.43685,-0.1647139 0.107423,0.028646 -0.04297,-0.028646 h 0.128906 l 0.07161,-0.028646 -0.100261,-0.042969 h 0.07162 l 0.107422,-0.136068 0.186199,-0.057292 0.07161,-0.085938 h 0.19336 v -0.071615 h 0.07162 l 0.06445,-0.1074222 h 0.200521 l 0.136068,0.1360681 q 0.121746,0.035807 0.128907,0.057292 l -0.05729,0.2363286 0.05729,0.2291672 -0.19336,0.4010426 0.03581,0.43685 -0.03581,0.1647138 0.0931,0.365235 v 0.730471 l 0.08594,0.637371 0.0072,0.128906 q 0.0072,0.04297 0.07878,0.236329 l 0.29362,0.73047 0.07162,0.07161 v 0.236329 l 0.06445,0.19336 -0.136068,0.229167 0.107422,0.164714 0.859377,-0.766278 0.401043,-0.322266 0.143229,-0.43685 0.222006,-0.05729 -0.02865,-0.07161 0.100261,-0.0931 0.07161,0.02865 0.06445,-0.33659 q 0.214819,-0.250645 0.522763,-0.630203 l 0.136068,-0.207683 0.10026,-0.114584 0.02148,-0.0931 q 0.0072,-0.03581 0.171875,-0.250651 0.171875,-0.214845 0.264975,-0.350913 0.10026,-0.143229 0.257813,-0.5227871 l 0.179037,-0.071615 0.07161,-0.2792975 0.107422,-0.1289066 q 0.0931,-0.1861983 0.293621,-0.4010425 V 8.5931118 l 0.100261,-0.136068 0.02148,-0.136068 q 0.0072,-0.064453 0.06445,-0.164714 L 53.207587,7.977225 q 0.05729,-0.093099 0.157553,-0.1647139 L 53.4654,7.5475365 53.293525,7.2825619 53.128811,7.3613381 53.02855,7.3183693 52.863836,7.5905053 h -0.171875 l -0.164714,0.2220058 h -0.157552 l -0.07162,-0.057292 -0.164714,0.1289065 -0.207683,0.028646 -0.10026,-0.1002606 0.179037,-0.1575525 v -0.136068 q 0.114583,-0.1432295 0.128906,-0.2005213 l 0.164714,-0.093099 0.200521,-0.3365893 0.05729,-0.028646 0.136068,-0.1432295 q 0.114584,-0.071615 0.236329,-0.2220057 h 0.128906 l 0.128907,-0.2363287 0.07878,0.057292 0.200521,-0.057292 0.164714,0.028646 0.128907,-0.028646 z m 4.748057,12.5827106 v 0.19336 l -0.07162,0.04297 0.02865,0.186198 -0.157552,0.02865 -0.02865,0.179037 0.05729,0.128907 -0.05729,0.164714 0.02865,0.128906 -0.236329,0.68034 -0.02865,-0.05013 q -0.150391,0.38672 -0.164714,0.444011 l -0.43685,0.422528 -0.10026,0.179036 v 0.128907 h -0.06445 l -0.07161,0.164714 -0.02865,-0.02865 -0.100261,0.229167 -0.164714,0.06445 -0.171875,0.286459 q -0.03581,0.05013 -0.264975,0.179037 l -0.0931,0.236329 -0.257813,0.136068 q -0.05013,0.02148 -0.19336,0.214844 l -0.164714,0.02865 -0.200521,-0.02865 -0.0931,0.136068 q -0.157553,0.0931 -0.293621,0.19336 -0.128906,0.107422 -0.171875,0.272136 -0.229167,0.07878 -0.307943,0.136068 l -0.08594,-0.06445 0.02865,-0.04297 -0.207683,-0.128907 -0.02865,-0.164713 q 0.05013,-0.128907 0.264975,-0.465496 l 0.264974,-0.02865 q 0.06445,-0.164714 0.171876,-0.307944 0.401042,-0.0931 0.673178,-0.179037 l 0.150391,-0.264974 q 0.458335,-0.329428 0.63021,-0.494142 l 0.08594,0.08594 -0.02865,-0.179037 q 0.229167,-0.343751 0.350912,-0.422527 l -0.02865,-0.08594 q 0.04297,-0.10026 0.307944,-0.236328 l -0.07162,-0.136068 0.07162,-0.307944 0.193359,-0.229167 q 0.02865,-0.07161 0.128907,-0.136068 l 0.179037,-0.995445 q 0.03581,0 0.207683,-0.408204 l 0.04297,-0.343751 0.114584,-0.257813 v -0.164714 l 0.02865,-0.128906 -0.05729,-0.136068 v -0.128907 l -0.07162,-0.07878 0.02865,-0.157553 -0.02865,-0.10026 0.100261,-0.02865 -0.07162,-0.279298 0.04297,-0.164714 0.08594,-0.05729 -0.05729,-0.236329 0.100261,-0.04297 -0.100261,-0.264975 q -0.03581,-0.279297 -0.07162,-0.29362 l 0.07162,-0.128907 -0.207683,-1.045575 0.05013,-0.229167 -0.136068,-1.131513 -0.171876,-0.100261 -0.164714,0.07161 -0.02865,-0.02865 -0.07161,0.100261 h -0.136068 v 0.164714 l -0.200522,0.05729 q -0.157552,0.08594 -0.322266,0.100261 l -0.07878,0.100261 -0.522788,0.837892 -0.544272,0.766278 -0.164714,0.128907 -0.05729,-0.02865 v 0.128906 l -0.143229,0.164714 h -0.0931 l -0.128907,0.04297 v 0.136068 l -0.279298,0.05729 v 0.02865 l -0.08594,-0.02865 -0.107422,0.07161 -0.07161,-0.128907 0.07161,-0.207683 -0.128907,-0.107422 0.100261,-0.10026 -0.07162,-0.05729 0.02865,-0.128907 -0.128907,-0.03581 0.02865,-0.07161 -0.02865,-0.128906 v -0.207683 l 0.07162,-0.100261 q -0.07878,-0.372397 -0.100261,-0.401042 l 0.05729,-0.05729 -0.02865,-0.100261 0.02865,-0.164714 v -0.200521 l -0.0931,-0.02865 0.06445,-0.107422 -0.06445,-0.200521 h 0.03581 l -0.03581,-0.107423 q 0.06445,-0.05013 0.0931,-0.157552 l 0.07162,-0.02865 v -0.179037 q 0.121745,-0.315105 0.128907,-0.365235 h -0.100261 l 0.04297,-0.08594 h 0.05729 l 0.164713,-0.601564 0.114584,-0.272136 q 0.06445,-0.128906 0.0931,-0.329427 l 0.128907,-0.164714 q 0.08594,-0.494142 0.264974,-0.673179 l 0.465496,-0.472657 0.207683,-0.057292 q 0.05729,-0.1575525 0.372397,-0.4010426 l 0.393881,-0.3079434 q 0.07878,-0.057292 0.200521,-0.093099 l 0.02865,-0.093099 h 0.19336 l 0.179037,-0.1718754 q 0.272136,-0.121745 0.29362,-0.1647139 L 58.149,8.7076595 58.378168,8.6646905 h 0.136072 l 0.02865,-0.028646 0.10026,0.071615 v -0.042969 l 0.164714,0.042969 0.04297,-0.071615 0.19336,0.071615 0.128906,-0.042969 0.04297,0.1289065 0.08594,-0.028646 0.07878,0.028646 -0.02865,0.05013 0.128907,-0.05013 0.05729,0.136068 -0.02865,0.1002607 0.164714,0.1002606 q 0.07878,0.286459 0.10026,0.4440115 l 0.02865,0.028646 0.236329,-0.071615 0.04297,-0.1647139 0.193359,-0.071615 h 0.128907 l 0.207683,0.2076828 -0.365235,0.5729183 -0.207683,0.02865 -0.19336,0.264974 H 59.74602 l 0.05729,0.365235 -0.02865,0.200522 -0.10026,1.496748 -0.06445,0.33659 v 0.136068 l -0.200521,0.264974 0.07162,0.465496 -0.04297,0.19336 -0.05729,0.02865 0.100261,0.143229 h -0.100261 l -0.07878,0.401043 0.07878,0.186198 -0.107422,0.07878 q -0.114584,0.38672 -0.128907,0.601564 l -0.07161,0.05729 v 0.100261 l -0.0931,0.02865 0.06445,0.207682 q 0,0.393881 -0.107422,0.529949 0.07161,0.315105 0.179037,0.565757 l -0.179037,0.03581 -0.05729,0.171876 h -0.07161 l 0.100261,0.136068 -0.05729,0.128906 h -0.04297 l 0.07161,0.128907 0.05729,0.372397 -0.02865,0.128906 0.07162,0.264975 -0.07162,0.128906 H 58.80786 Z M 58.041582,9.8678543 57.912676,9.968115 57.776608,9.939469 57.704988,9.996761 h -0.236329 l -0.08594,-0.057292 -0.100261,0.085938 h -0.100261 q -0.150391,0.136068 -0.264974,0.136068 h -0.136068 l -0.33659,0.43685 q -0.157552,0.279297 -0.207682,0.29362 l 0.05013,0.179037 -0.107422,0.236329 v 0.02865 l -0.200521,0.02865 v 0.465496 q -0.0931,0.200521 -0.0931,0.501303 0,0.315104 0.136068,0.601563 l -0.07878,0.393882 0.107422,0.136068 h 0.128907 l 0.107422,-0.164714 q 0.379558,-0.315105 0.393881,-0.365236 0.121745,-0.03581 0.501303,-0.336589 l 0.100261,0.07161 q 0.229179,-0.350907 0.558607,-0.36523 l 0.171875,-0.207683 -0.128906,-0.422527 q 0.150391,-0.200521 0.157552,-0.236329 l 0.236329,-0.128906 0.136068,-0.236329 0.07162,-0.07162 0.02865,-0.107422 0.128906,-0.128907 v -0.136067 q -0.157561,-0.343751 -0.20053,-0.393882 v -0.10026 z m 3.30144,6.8750157 h 7.33335 v 0.973961 h -7.33335 z M 73.309846,6.3873776 q 0,0.1503909 -0.236329,0.5299491 v 0.136068 l -0.157553,0.3652352 v 0.2363287 l -0.207682,0.4941418 v 0.071615 q 0,0.1647139 0.107422,0.1647139 l 0.229167,-0.071615 q 0.222006,0.1289065 0.372397,0.1289065 h 0.322266 q 0.444012,-0.1145836 0.673179,-0.1145836 0.264974,0 0.572918,0.042969 v 0.042969 l 0.264974,0.028646 0.24349,0.2936205 -0.229167,0.2936205 -0.415365,0.057292 -0.408204,0.2220057 -0.157553,0.028646 q -0.07878,0.014323 -0.236328,0.1217451 l -0.444012,-0.05013 q -0.04297,0.064453 -0.393881,0.078776 l -0.737632,0.028646 q -0.322266,0.2220057 -0.422527,0.3365893 l 0.02865,0.3652347 -0.100261,0.164714 -0.05729,0.522788 -0.179036,0.236329 -0.02865,0.630209 -0.179037,0.100261 -0.02865,0.179037 0.107422,0.365235 -0.136068,1.324873 0.293621,1.138675 0.336589,-0.14323 q 0.0931,-0.19336 0.365235,-0.19336 h 0.136068 q 0.350912,-0.114583 0.529949,-0.393881 l 0.33659,-0.100261 -0.04297,-0.03581 0.10026,-0.128906 q 0.136071,-0.100259 0.171879,-0.179035 l 0.207682,-0.07161 0.05729,-0.128907 q 0.107422,0 0.107422,-0.107422 0.128907,-0.222005 0.63021,-0.365235 0.100261,0.05013 0.100261,0.136068 0,0.128907 -0.128907,0.48698 -0.128906,0.358074 -0.336589,0.508465 l -0.401043,0.279298 -0.121745,0.164714 q -0.06445,0.10026 -0.164714,0.143229 l -0.257813,0.114584 -0.200521,0.05729 -0.429688,0.38672 -0.257814,0.02865 -0.329427,0.264975 -0.136068,0.136068 q -0.03581,0.03581 -0.150391,0.07878 l -0.909508,0.358074 -0.207682,0.02864 -0.164714,0.128907 -0.33659,-0.222006 -0.10026,-0.43685 -0.107422,-0.229167 q -0.04297,-0.107422 -0.286459,-1.532556 0.01432,-0.05013 0.128906,-0.250651 v -0.250652 l 0.179037,-0.07161 0.214844,-0.601563 -0.07161,-0.200522 q 0.300782,-0.05729 0.322267,-0.08594 0.02865,-0.02865 0.02865,-0.06445 0,-0.02865 -0.07162,-0.171875 l 0.236329,-0.708986 0.07161,-0.63021 0.322267,-0.866539 Q 71.111273,9.8535314 70.932236,9.7031404 70.753199,9.545588 70.581324,9.5169421 l -0.279298,0.1718754 h -0.08594 q -0.207682,0 -0.300781,-0.05013 -0.08594,-0.05013 -0.0931,-0.05013 -0.06445,0 -0.164714,0.071615 -0.06445,0.1503909 -0.171875,0.1503909 h -0.02865 q -0.03581,0.014323 -0.121745,0.014323 -0.07878,0 -0.279297,-0.028646 -0.14323,-0.4010426 -0.14323,-0.4869803 0,-0.085938 0.100261,-0.3222664 0.107422,-0.2363286 0.222005,-0.2363286 l 0.100261,0.014323 0.207683,-0.057292 q 0.200521,-0.057292 0.279297,-0.057292 h 0.04297 q 0.02865,0.014323 0.08594,0.014323 0.07161,0 0.121745,-0.028646 0.05729,-0.028646 0.128907,-0.028646 0.0931,0 0.128906,0.028646 L 70.595644,8.500013 h 0.07878 q 0.107422,0 0.19336,-0.028646 0.08594,-0.028646 0.214844,-0.2936204 l 0.157552,0.028646 q 0.02148,-0.1432295 0.179037,-0.422527 0.128907,-0.00716 0.128907,-0.2076828 v -0.085938 l -0.04297,0.057292 q 0.107422,-0.2792975 0.179037,-0.422527 l -0.04297,-0.2792975 0.307943,-0.587241 q 0.128907,-0.1933598 0.33659,-0.2363286 0.143229,-0.2148443 0.479819,-0.4225271 0.336589,-0.2076827 0.444011,-0.2076827 0.250652,0 0.307943,0.2220057 L 73.309845,6.0221427 Z M 80.012987,3.0787762 80.120409,3 l 0.157553,0.1074221 0.136068,-0.028646 0.100261,0.1289066 0.207682,-0.057292 q 0.150391,0 0.229167,0.1575524 l 0.264975,0.5013033 q 0,0.3938811 -0.229167,0.3938811 h -0.07878 l -0.322267,0.3723967 0.02865,0.071615 -0.07162,-0.042969 q -0.07161,0.1575524 -0.29362,0.1718753 v 0.057292 Q 80.091764,4.6328163 79.447231,4.3678417 l -0.0931,0.071615 -0.04297,-0.071615 q -0.100261,0.1217451 -0.19336,0.3652352 -0.07162,0.057292 -0.07162,0.1145836 0,0.035807 0.02865,0.093099 -0.0931,0.093099 -0.157552,0.2005213 v 0.2363286 q -0.04297,0.2005213 -0.136068,0.3938811 h -0.02865 Q 78.6523,6.0221422 78.6523,6.2727938 q -0.08594,0.028646 -0.08594,0.1647139 0,0.071615 0.01432,0.1002606 -0.02865,0.1718754 -0.0931,0.2936205 h -0.04297 q -0.128892,0.2578133 -0.128892,0.2792977 l -0.02865,-0.042969 v 0.071615 q -0.157553,0.3151049 -0.207683,0.5585951 l -0.08594,0.4368499 v 0.3365893 l 0.02865,0.064453 q -0.02865,0.057292 -0.10026,0.1289066 l -0.03581,-0.028646 -0.07161,0.1575524 V 9.1015762 L 77.685508,9.3379049 V 9.731786 l -0.05729,0.2649746 v 0.3079434 l -0.179037,0.766278 -0.02865,0.529949 q -0.05729,0 -0.05729,0.04297 0,0.03581 0.05729,0.05729 l -0.02864,0.236328 q 0.07878,0.157553 0.236328,0.157553 l 0.02865,-0.100261 0.264975,-0.365235 h 0.02865 v -0.06445 q 0.107411,-0.114584 0.257802,-0.365235 0.150391,-0.250652 0.279297,-0.264975 l 0.136068,-0.200521 0.05729,0.02865 q 0.07878,-0.0931 0.100261,-0.164714 l 0.02865,0.02865 0.05013,-0.157553 0.05729,0.02865 0.05729,-0.143229 q 0.01432,-0.05013 0.0931,-0.114584 l 0.186198,-0.164714 0.422527,-0.2076823 -0.02865,-0.028646 0.63021,-0.4440114 0.307943,-0.1575525 q 0.08594,-0.071615 0.19336,-0.1074221 l 0.236329,0.136068 0.229167,0.028646 0.07878,0.042969 q 0.02865,0.014323 0.05729,0.085938 0.02865,0.071615 0.02865,0.078776 v 0.1575525 l 0.179037,0.3652348 -0.05013,0.307944 0.150391,0.29362 0.02865,0.372397 0.100261,0.465496 -0.229167,0.264974 0.02865,0.128907 q 0.393881,0.222006 0.393881,0.63021 l -0.05729,0.236329 0.128907,0.336589 -0.02865,0.336589 0.05729,0.458335 q -0.02864,0.03581 -0.07878,0.08594 -0.04297,0.05013 -0.05013,0.05729 0.143229,0.128907 0.336589,0.222006 0.07878,-0.107422 0.164714,-0.157553 0.08594,-0.05013 0.229167,-0.207682 h 0.136068 l 0.04297,-0.07161 0.07161,-0.02865 v -0.07878 l 0.19336,-0.14323 q 0.08594,-0.04297 0.207682,-0.136068 l 0.243491,-0.186198 q 0.08594,-0.0072 0.186198,-0.107422 0.100261,-0.100261 0.150391,-0.128907 l 0.207683,-0.01432 0.02865,-0.10026 0.379558,0.114583 -0.02865,0.128907 0.02865,0.264974 q -0.222006,0.164714 -0.264975,0.372397 l -0.02865,-0.03581 -0.07161,0.136068 -0.128907,0.07161 -0.02865,0.08594 q -0.186198,0.05013 -0.429688,0.07878 v 0.05729 q -0.236329,0.114584 -0.33659,0.114584 l -0.04297,0.222006 -0.15039,0.08594 q -0.164714,0.150391 -0.379559,0.150391 -0.157552,0.286459 -0.322266,0.293621 l -0.207683,0.229167 -0.257813,0.03581 v 0.05729 q -0.07878,0 -0.429688,0.128907 l -0.02865,0.07161 -0.07161,-0.02865 q -0.04297,0.164714 -0.336589,0.164714 -0.121745,0 -0.264975,-0.214844 -0.136068,-0.214844 -0.136068,-0.257813 v -0.05729 q -0.05729,-0.48698 -0.05729,-0.673178 l 0.01432,-0.07161 -0.05729,-0.19336 v -0.365235 l -0.186198,-0.264975 0.02865,-0.236328 -0.07878,-0.837893 0.150391,-0.522788 -0.307944,-0.365235 q -0.164714,-0.1862 -0.164714,-0.529951 h -0.02865 q 0.05729,-0.100261 0.05729,-0.150391 0,-0.186198 -0.257813,-0.214844 l -0.207683,0.10026 h -0.136068 l -0.02864,0.128907 -0.02865,-0.04297 q -0.02148,0.329428 -0.279298,0.365235 v 0.05013 q -0.214839,0.128907 -0.214839,0.257814 l 0.01432,0.0931 q 0,0.04297 -0.01432,0.07162 l -0.107422,0.02865 -0.100261,0.236328 -0.100261,0.07161 q -0.01432,0.222006 -0.264974,0.393881 -0.04297,0.214844 -0.236329,0.336589 -0.107422,0.293621 -0.29362,0.472658 l -0.100261,0.393881 0.200521,0.164714 -0.229167,0.236328 h -0.05013 l -0.08594,0.257814 v 0.236328 l -0.07161,0.107422 -0.05729,0.157553 q -0.01432,0.04297 -0.100261,0.121745 l -0.207683,0.186198 -0.07878,-0.04297 -0.05729,0.179037 h -0.07161 q -0.07161,0.157553 -0.264974,0.157553 l -0.02865,0.236328 h -0.128907 l -0.136068,0.157553 -0.200521,-0.02865 q -0.05013,0.07878 -0.136068,0.164714 l -0.128906,-0.19336 q 0.10026,-0.07878 0.10026,-0.186198 0,-0.06445 -0.07162,-0.179037 0.05013,-0.02149 0.05729,-0.07878 0.01432,-0.05729 0.07161,-0.286459 h -0.02865 q 0.05729,-0.100261 0.05729,-0.19336 0,-0.08594 -0.02865,-0.171876 h 0.04297 q 0.02865,-0.408204 0.136068,-0.601564 -0.04297,-0.0931 -0.04297,-0.150391 l 0.04297,-0.222005 v -0.100252 l 0.100261,-0.322266 h 0.02865 v -0.07161 l 0.107423,-0.472657 0.02864,0.04297 -0.02864,-0.229168 0.05729,-0.150391 0.128907,-0.08594 -0.128907,-0.207682 0.128907,-0.494142 v -0.136068 q 0.07161,-0.04297 0.07161,-0.100261 l -0.02863,-0.136074 v -0.02865 h 0.06445 l -0.0358,-0.393881 v -0.10026 l 0.03581,-0.07878 h -0.03581 l 0.03581,-0.257813 q 0.07878,-0.121745 0.114584,-0.286459 0.04297,-0.1718755 0.04297,-0.1861985 V 9.7031404 L 76.976531,9.531265 q 0.0931,-0.021484 0.0931,-0.093099 0,-0.1074221 -0.121745,-0.3652352 L 77.083944,8.7649872 V 8.5000126 l 0.100261,-0.2936204 0.02865,0.035807 0.04297,-0.2649745 0.05013,-0.150391 -0.02148,-0.057292 q 0,-0.085938 0.107423,-0.2363287 h -0.04297 q 0,-0.057292 0.04297,-0.1002606 l -0.04297,-0.028646 q 0.10026,-0.150391 0.10026,-0.2076828 v -0.057292 h 0.04297 q 0.02865,-0.1790368 0.08594,-0.2363286 L 77.68552,6.874357 V 6.7024825 Q 77.7428,6.4661538 77.7428,6.3157628 V 6.0794342 q 0,-0.085938 0.04297,-0.1718754 l 0.07161,-0.028646 V 5.5996153 l 0.07878,-0.2220057 q 0.114583,-0.136068 0.114583,-0.3509122 V 4.9407597 L 78.17965,4.5755245 q 0,-0.093099 0.07878,-0.164714 h 0.02865 l 0.157552,-0.4726573 q 0.157553,-0.2434901 0.207683,-0.286459 0.38672,-0.05013 0.529949,-0.4440114 0.121745,0 0.200522,-0.1002607 L 79.64776,3.0501303 79.855443,3.0787762 79.984349,3 Z m 8.006528,5.1920692 0.179037,0.028646 h 0.02865 l -0.02865,0.071615 h 0.05729 l 0.10026,0.1002606 0.33659,0.028646 h 0.336589 l 0.19336,0.1074222 h 0.07161 l 0.107422,0.3652352 -0.150391,0.1289065 v 0.136068 l 0.236328,0.2363287 -0.02864,0.6588554 h -0.100261 l -0.03581,0.128907 h -0.02865 v 0.207683 l 0.136068,0.02865 0.05729,0.07161 -0.08594,0.136068 v 0.100259 l -0.179024,0.08594 -0.128907,0.107422 -0.372396,0.200522 q -0.150391,0.157552 -0.257813,0.236328 l -0.107423,0.293621 -0.630209,0.250651 -0.63021,-0.01432 0.02865,0.157553 h -0.128907 l -0.02865,0.04297 -0.307943,0.06445 -0.02865,-0.107422 -0.107422,0.04297 v 0.06445 l -0.264975,0.10026 -0.10026,0.293621 0.136068,0.365235 v 0.179037 l 0.07161,0.157553 q -0.143229,0.422527 -0.207682,0.444011 l 0.04297,0.128907 -0.07161,0.02865 0.164714,0.07161 v 0.222006 l 0.143229,0.100261 q 0.358074,-0.107423 0.43685,-0.157553 l 0.107422,0.100261 0.02865,-0.02865 q 0.293621,-0.02865 0.465496,-0.07161 l 0.05013,-0.08594 h 0.171876 l 0.136068,-0.01432 0.171875,0.08594 -0.04297,-0.05729 h 0.14323 l 0.179037,-0.150391 0.207682,-0.01432 h -0.04297 l 0.200521,-0.08594 0.05729,0.04297 0.107422,-0.100261 h 0.143229 l 0.136068,-0.136068 q 0.157553,-0.0072 0.508465,-0.186198 v -0.07878 l 0.207683,-0.05729 0.222006,-0.322267 0.236328,0.02865 q 0.121745,0.114584 0.286459,0.136068 l 0.107422,0.100261 -0.164714,0.307943 0.02865,0.19336 -0.229167,0.128907 -0.02865,0.07161 -0.343751,0.04297 -0.186198,0.19336 -0.207683,0.01432 -0.05729,0.164714 -0.279297,-0.02865 -0.08594,0.200521 -0.222005,-0.02865 -0.08594,0.100261 q -0.24349,0.0931 -0.250652,0.107422 l -0.10026,-0.05729 -0.164714,0.157553 h -0.236329 l -0.14323,0.07161 h -0.08594 l -0.107422,0.0931 q -0.186199,0.05013 -0.379558,0.157552 l -0.100261,-0.07161 H 87.02407 l -0.08594,0.07161 -0.07878,-0.02865 -0.10026,0.02865 -0.02865,-0.02865 -0.07162,0.164714 h -0.19336 l -0.157552,0.08594 q -0.07878,0.04297 -0.343751,0.07161 l -0.07162,0.07161 h -0.128906 l -0.19336,0.02865 -0.14323,0.179037 -0.19336,-0.07161 -0.10026,0.128907 -0.07878,-0.02149 q -0.02865,-0.0072 -0.286459,-0.272136 l 0.02864,-0.171875 -0.02864,-0.0931 0.02864,-0.171876 -0.107422,-0.264974 0.04297,-0.207683 -0.07161,-0.322266 0.07161,-0.264975 -0.10026,-0.408204 -0.02865,-0.02865 0.02865,-0.207683 0.236328,-0.08594 v -0.14323 l -0.10026,-0.03581 0.02864,-0.186198 -0.06445,-0.107423 0.03581,-0.171875 0.10026,-0.05729 -0.02865,-0.164714 0.02865,-0.279297 0.05729,-0.02865 0.100261,-0.33659 0.236328,-0.422527 0.207683,-0.07878 0.02865,-0.229167 -0.02865,-0.06445 0.02865,-0.128906 0.128907,-0.07161 0.07878,-0.236329 H 85.5273 v -0.08594 l 0.07162,-0.107422 -0.02865,-0.100261 0.02865,-0.100261 h 0.02865 V 9.8965002 l 0.236328,-0.028646 0.100261,-0.2076827 0.501303,-0.5585951 h 0.100261 q 0.08594,-0.136068 0.222005,-0.2291672 l 0.100261,0.028646 q 0.100261,-0.035807 0.236329,-0.2363286 h 0.07161 l 0.136069,-0.085938 h 0.05729 l 0.100261,-0.150391 z m -0.171875,1.2174508 -0.250652,0.085938 -0.19336,-0.085938 q -0.171875,0.1432295 -0.279297,0.2005213 -0.02148,0.1861983 -0.150391,0.3151045 -0.121745,0.128907 -0.171876,0.128907 h -0.128906 l 0.08594,0.157552 q -0.07878,0.14323 -0.207683,0.444012 l -0.114584,-0.02865 -0.04297,0.186198 0.04297,0.264975 0.14323,0.07878 q 0.06445,0.03581 0.358073,0.08594 l 0.229168,-0.150391 0.472657,-0.04297 0.250652,-0.365236 0.336589,-0.279297 0.04297,-0.5299492 -0.114584,-0.1718754 -0.01432,-0.2506516 h -0.164714 z m 15.4473,3.6523518 -0.15039,0.08594 -0.043,-0.05729 v 0.128907 l -0.0286,-0.02865 q -0.0716,0.207683 -0.11458,0.236328 -0.0358,0.02865 -0.0931,0.02865 h -0.0573 v 0.02865 q 0,0.07161 -0.10026,0.07161 l 0.0286,0.02865 -0.0286,0.02865 -0.0286,-0.02865 v 0.05729 q -0.0573,0 -0.10026,0.05013 -0.0358,0.04297 -0.0358,0.05729 v 0.10026 l -0.10027,-0.02865 0.0286,0.05729 -0.16471,0.07878 -0.43685,0.494141 -0.0286,-0.02865 q 0,0.114584 -0.10026,0.128907 -0.0931,0.529949 -0.29362,0.529949 l -0.35091,-0.06445 q -0.13607,-0.02149 -0.19336,-0.02865 -0.0573,-0.0072 -0.32227,-0.200521 -0.0788,0.01432 -0.222,0.107422 -0.10026,-0.06445 -0.22201,-0.207683 h 0.0286 v -0.100261 l 0.0788,-0.03581 -0.0788,-0.128907 0.222,-0.157552 -0.29362,-0.207683 -0.0287,-0.136068 q 0.11459,-0.06445 0.11459,-0.10026 0,-0.0072 -0.243495,-0.393882 -0.229167,-0.207682 -0.293621,-0.336589 h 0.02865 l -0.02865,-0.136068 0.100261,-0.200521 v -0.136068 h 0.01432 q 0.01432,0 0.01432,-0.01432 0,-0.01432 -0.100261,-0.279298 h 0.02865 l -0.08594,-0.10026 q 0.08594,-0.114584 0.08594,-0.250652 0,-0.214844 -0.29362,-0.644533 l -0.08589,-0.236323 Q 99.291676,10.57684 99.141285,10.469418 98.87631,10.669939 98.87631,10.82033 l 0.01432,0.05729 q 0,0.121745 -0.186198,0.121745 h -0.06445 q -0.107422,0.207683 -0.257813,0.393881 l 0.02865,0.128907 -0.136068,0.107422 q -0.0072,0.107422 -0.05729,0.207683 -0.05013,0.0931 -0.114584,0.157552 -0.06445,0.06445 -0.164714,0.264975 l -0.02865,-0.02865 v 0.08594 l -0.07161,0.04297 -0.05729,0.128906 q -0.136068,0.07161 -0.136068,0.150391 0,0.02865 0.02865,0.08594 h -0.02865 v 0.05729 h -0.04297 l -0.08594,0.236329 -0.150391,0.07161 0.04297,0.164714 q -0.0931,0.250651 -0.365235,0.572918 v 0.157552 q -0.05013,0.472658 -0.14323,0.601564 h -0.02865 q 0.0072,0.100261 -0.143229,0.24349 -0.14323,0.150391 -0.229167,0.207683 -0.08594,0.06445 -0.24349,0.06445 h -0.06445 q -0.01432,-0.01432 -0.05729,-0.01432 -0.03581,0 -0.250652,0.179037 l -0.05013,0.0931 q -0.02148,0.04297 -0.04297,0.04297 -0.01432,0.0072 -0.05013,0.0072 -0.07878,0 -0.08594,-0.01432 l -0.164714,-0.236329 -0.207683,-0.02865 -0.07161,-0.171875 q 0.05013,-0.19336 0.179037,-0.401043 l -0.02865,-0.10026 q 0.05729,-0.02149 0.05729,-0.05729 0,-0.02865 -0.02865,-0.04297 l 0.05729,-0.222006 v -0.04297 l -0.04297,-0.05729 0.02865,-0.07878 0.04297,0.04297 q 0.02148,-0.164714 0.164714,-0.200521 l 0.07161,-0.136068 0.05729,-0.02865 q 0.07878,-0.19336 0.128907,-0.236329 l -0.02865,-0.257813 q 0,-0.128906 0.07878,-0.307943 h 0.04297 v -0.03581 l -0.04297,-0.02865 0.171876,-0.644533 0.10026,-0.186198 v -0.264998 l -0.17187,-0.107422 -0.05729,-0.171876 q -0.07878,-0.10026 -0.07878,-0.164714 l 0.03581,-0.264974 q 0,-0.300782 -0.136068,-0.336589 -0.08594,0.06445 -0.157552,0.07878 v 0.02865 l -0.107422,0.128906 h -0.157553 l -0.02865,0.100261 h -0.07878 q -0.100261,0.121745 -0.207683,0.372396 -0.107422,0.243491 -0.157552,0.33659 -0.214844,0.171875 -0.336589,0.322266 v 0.07161 q -0.200522,0 -0.264975,0.236329 l -0.02865,-0.04297 v 0.07162 h -0.100261 q -0.03581,0.164714 -0.136068,0.286459 -0.0931,0.121745 -0.200521,0.24349 0,0.07878 -0.0931,0.10026 -0.02865,0.14323 -0.200521,0.264975 l -0.07161,0.0931 q -0.03581,0.03581 -0.06445,0.214844 l -0.100261,0.05729 v 0.04297 q -0.100261,0.02148 -0.100261,0.08594 h -0.06445 q 0,0.164714 -0.07161,0.179037 -0.171875,0.10026 -0.272136,0.250651 -0.0931,0.14323 -0.0931,0.171876 v 0.07878 q -0.164714,0.214844 -0.164714,0.558595 h -0.02865 l 0.02865,0.07161 -0.10026,0.29362 q 0.207682,-0.0931 0.264974,-0.0931 0.100261,0 0.100261,0.136068 l -0.07162,0.05729 v 0.02865 l -0.08594,0.179036 q -0.24349,0.186199 -0.336589,0.322267 v 0.04297 l -0.07878,0.02865 q -0.114584,0.286459 -0.214844,0.472657 l -0.307944,0.157552 -0.0931,-0.200521 q -0.04297,-0.0931 -0.24349,-0.329428 0.08594,-0.05729 0.10026,-0.10026 -0.03581,-0.05729 -0.164713,-0.128907 h -0.100261 q -0.164714,0 -0.222006,-0.04297 -0.05729,-0.03581 -0.07161,-0.19336 l 0.02865,-0.02865 q -0.04297,-0.04297 -0.04297,-0.0931 0,-0.02865 0.01432,-0.04297 v -0.128906 l 0.02865,0.02865 v -0.100261 q 0.164714,-0.05729 0.164714,-0.207683 0.05013,-0.03581 0.100261,-0.164714 l -0.05729,-0.10026 q 0.222006,-0.08594 0.222006,-0.293621 0.200521,-0.121745 0.200521,-0.451173 v -0.07878 l 0.107422,-0.07161 -0.07878,-0.10026 0.07878,-0.107422 -0.07878,-0.02865 v -0.100262 l 0.136068,-0.264974 h -0.05729 v -0.05729 l -0.136068,-0.07161 v -0.136068 l 0.164714,-0.601564 -0.05729,-0.157552 q 0.0072,-0.0072 0.05729,-0.179037 h 0.01432 q 0.07878,0 0.0931,-0.06445 0.02148,-0.06445 0.02865,-0.264975 0.0072,-0.200521 0.02149,-0.329428 l -0.08594,-0.07161 0.08594,-0.164714 v -0.200528 l 0.04297,-0.136068 q -0.14324,-0.05729 -0.14324,-0.214844 l 0.01432,-0.107422 -0.179037,-0.171876 -0.422527,-0.02865 -0.02865,-0.264974 0.19336,-0.07878 -0.03581,0.07878 0.06445,-0.02865 q 0,-0.1360681 0.128906,-0.179037 0.05013,-0.1933598 0.257813,-0.2220057 0.214845,-0.035807 0.214845,-0.2792975 h 0.04297 l 0.128906,-0.3652352 h 0.05729 V 8.9297011 h 0.02865 q 0.06445,-0.2434901 0.307943,-0.422527 0.24349,-0.1790369 0.444012,-0.2363287 0.279297,-0.035807 0.451173,-0.2936204 l 0.207682,0.1575524 -0.04297,0.028646 q 0.322267,0.085938 0.730471,0.1074221 v 0.028646 q -0.08594,0.021484 -0.171876,0.057292 -0.07878,0.028646 -0.164713,0.078776 -0.07878,0.05013 -0.100261,0.1145836 l -0.05729,0.1575524 -0.164714,0.028646 v 0.1933596 h 0.02865 q -0.02148,0.085938 -0.05729,0.1002607 l -0.07161,0.2076827 q -0.164714,0.1861984 -0.164714,0.3365894 l 0.02865,0.1432295 q 0,0.05013 -0.02865,0.05013 h -0.07162 v 0.042969 h -0.02865 l 0.02865,0.1289066 q -0.08594,0.021484 -0.08594,0.136068 l 0.01432,0.04297 q 0,0.0931 -0.164714,0.279298 0,0.128906 -0.128906,0.128906 l -0.164714,0.150391 0.07878,0.157552 -0.05013,0.264975 v 0.207683 q -0.04297,0.02865 -0.128907,0.05729 l -0.02865,0.171875 q 0,0.114584 -0.10026,0.19336 l 0.02864,0.207683 -0.0931,0.229167 -0.128906,0.959637 q 0.02148,0.14323 0.128906,0.14323 0.06445,-0.04297 0.128907,-0.107422 0.06445,-0.06445 0.136068,-0.150391 0.07162,-0.08594 0.114583,-0.150391 0.05013,-0.06445 0.207683,-0.164714 l 0.107422,-0.207683 h 0.128907 q 0.04297,-0.08594 0.04297,-0.157552 0.08594,-0.08594 0.08594,-0.207683 0.286459,-0.06445 0.372397,-0.322266 h 0.04297 q 0.07161,-0.257813 0.29362,-0.365235 0.0931,0 0.136068,-0.06445 0.04297,-0.07161 0.200522,-0.243491 v -0.100261 h 0.02865 v -0.0931 q 0.329427,-0.264975 0.365235,-0.257813 v -0.07878 l 0.02865,-0.100261 h 0.07878 q -0.03581,-0.05013 -0.03581,-0.07161 0,-0.08594 0.136068,-0.19336 h 0.186198 q 0.02148,-0.2864586 0.444011,-0.5299487 l 0.02865,0.028646 v -0.071615 l 0.02865,-0.085938 0.04297,0.028646 q 0.05013,-0.2148443 0.100261,-0.2363287 0.05729,-0.028646 0.0931,-0.028646 0.02148,0 0.07162,0.028646 0.01432,-0.1861984 0.121745,-0.1861984 0.05729,0 0.171875,0.085938 h 0.05729 q 0.257813,0 0.307943,0.2649746 0.315105,0.014323 0.408204,0.1861984 0.0931,0.1718753 0.0931,0.2506516 0,0.1145832 -0.100261,0.1933602 l -0.03581,0.10026 q 0,0.114584 0.0931,0.236329 l 0.01432,0.179037 h -0.02865 q -0.02865,0.157552 -0.179037,0.322266 l 0.07161,0.100261 -0.02865,0.264974 0.05729,0.128907 q 0,0.236329 0.136068,0.236329 0.107422,0 0.128906,-0.128907 l 0.07878,-0.136068 q 0.272136,-0.272136 0.365236,-0.43685 l 0.157552,-0.02865 0.107422,-0.236329 0.128907,-0.08594 q 0.143229,-0.07161 0.164714,-0.222005 0.164713,-0.03581 0.322266,-0.272136 0.157552,-0.2363291 0.279297,-0.2434905 l 0.04297,-0.042969 q 0.06445,-0.1575524 0.08594,-0.1647139 l 0.04297,0.014323 q 0.02865,0 0.02865,-0.042969 l 0.136068,-0.071615 q 0.200521,0 0.264974,-0.2363287 0.171876,-0.021484 0.229168,-0.1002607 l 0.07878,-0.028646 0.08594,0.028646 q 0.25066,0 0.33659,0.2363287 l 0.15756,-0.028646 0.20768,0.3079434 v 0.1575525 q 0.15755,0.4654962 0.20768,0.7376322 h 0.0573 q -0.0143,0.236328 -0.1289,0.422527 l 0.10026,0.128906 -0.10026,0.236329 q 0.0716,0.264974 0.0716,0.458334 0,0.229167 -0.0716,0.307944 l 0.0286,0.43685 h 0.043 l -0.0573,0.179037 -0.0788,0.02865 v 0.08594 q 0,0.300782 0.13607,0.501303 0.043,0.730471 0.2793,0.730471 0.0788,0 0.4082,-0.393881 l 0.17904,-0.02865 0.0573,-0.164714 0.12891,-0.100261 -0.0286,-0.04297 0.36524,-0.322266 0.20768,-0.264974 h 0.0573 l 0.16472,-0.279298 q 0.043,0.04297 0.0859,0.04297 0.11459,0 0.22201,-0.236329 h 0.0286 q 0.0286,0 0.0286,-0.01432 v -0.01432 l 0.29362,0.307944 z m 3.80991,-4.8698026 0.17903,0.028646 h 0.0287 l -0.0287,0.071615 h 0.0573 l 0.10027,0.1002606 0.33658,0.028646 h 0.33659 l 0.19336,0.1074222 h 0.0716 l 0.10742,0.3652352 -0.15039,0.1289065 v 0.136068 l 0.23633,0.2363287 -0.0286,0.6588554 h -0.10026 l -0.0358,0.128907 h -0.0286 v 0.207683 l 0.13607,0.02865 0.0573,0.07161 -0.0859,0.136068 v 0.10026 l -0.17904,0.08594 -0.1289,0.107422 -0.3724,0.200522 q -0.15039,0.157552 -0.25781,0.236328 l -0.10742,0.293621 -0.63021,0.250651 -0.63021,-0.01432 0.0286,0.157553 h -0.1289 l -0.0286,0.04297 -0.30794,0.06445 -0.0286,-0.107422 -0.10742,0.04297 v 0.06445 l -0.26498,0.10026 -0.10026,0.293621 0.13607,0.365235 v 0.179037 l 0.0716,0.157553 q -0.14323,0.422527 -0.20769,0.444011 l 0.043,0.128907 -0.0716,0.02865 0.16471,0.07161 v 0.222006 l 0.14323,0.100261 q 0.35807,-0.107423 0.43685,-0.157553 l 0.10742,0.100261 0.0286,-0.02865 q 0.29362,-0.02865 0.46549,-0.07161 l 0.0501,-0.08594 h 0.17188 l 0.13607,-0.01432 0.17187,0.08594 -0.043,-0.05729 h 0.14323 l 0.17904,-0.150391 0.20768,-0.01432 h -0.043 l 0.20053,-0.08594 0.0573,0.04297 0.10742,-0.100261 h 0.14323 l 0.13607,-0.136068 q 0.15755,-0.0072 0.50846,-0.186198 v -0.07878 l 0.20768,-0.05729 0.22201,-0.322267 0.23633,0.02865 q 0.12174,0.114584 0.28646,0.136068 l 0.10742,0.100261 -0.16471,0.307943 0.0286,0.19336 -0.22916,0.128907 -0.0286,0.07161 -0.34375,0.04297 -0.1862,0.19336 -0.20768,0.01432 -0.0573,0.164714 -0.2793,-0.02865 -0.0859,0.200521 -0.22201,-0.02865 -0.0859,0.100261 q -0.24349,0.0931 -0.25065,0.107422 l -0.10027,-0.05729 -0.16471,0.157553 h -0.23633 l -0.14323,0.07161 h -0.0859 l -0.10742,0.0931 q -0.1862,0.05013 -0.37956,0.157552 l -0.10026,-0.07161 h -0.20768 l -0.0859,0.07161 -0.0788,-0.02865 -0.10026,0.02865 -0.0286,-0.02865 -0.0716,0.164714 h -0.19336 l -0.15756,0.08594 q -0.0788,0.04297 -0.34375,0.07161 l -0.0716,0.07161 h -0.12891 l -0.19336,0.02865 -0.14323,0.179037 -0.19336,-0.07161 -0.10026,0.128907 -0.0788,-0.02149 q -0.0286,-0.0072 -0.28646,-0.272136 l 0.0286,-0.171875 -0.0286,-0.0931 0.0286,-0.171876 -0.10742,-0.264974 0.043,-0.207683 -0.0716,-0.322266 0.0716,-0.264975 -0.10026,-0.408204 -0.0286,-0.02865 0.0286,-0.207683 0.23633,-0.08594 v -0.14323 l -0.10026,-0.03581 0.0286,-0.186198 -0.0645,-0.107423 0.0358,-0.171875 0.10026,-0.05729 -0.0286,-0.164714 0.0286,-0.279297 0.0573,-0.02865 0.10026,-0.33659 0.23633,-0.422527 0.20768,-0.07878 0.0286,-0.229167 -0.0286,-0.06445 0.0286,-0.128906 0.1289,-0.07161 0.0788,-0.236329 h -0.17904 v -0.08594 l 0.0716,-0.107422 -0.0286,-0.100261 0.0286,-0.100261 h 0.0286 V 9.8965002 l 0.23633,-0.028646 0.10026,-0.2076827 0.50131,-0.5585951 h 0.10026 q 0.0859,-0.136068 0.222,-0.2291672 l 0.10026,0.028646 q 0.10026,-0.035807 0.23633,-0.2363286 h 0.0716 l 0.13606,-0.085938 h 0.0573 l 0.10026,-0.150391 z m -0.17188,1.2174508 -0.25065,0.085938 -0.19336,-0.085938 q -0.17188,0.1432295 -0.2793,0.2005213 -0.0215,0.1861983 -0.15039,0.3151045 -0.12174,0.128907 -0.17187,0.128907 h -0.12891 l 0.0859,0.157552 q -0.0788,0.14323 -0.20769,0.444012 l -0.11458,-0.02865 -0.043,0.186198 0.043,0.264975 0.14323,0.07878 q 0.0644,0.03581 0.35807,0.08594 l 0.22917,-0.150391 0.47266,-0.04297 0.25065,-0.365236 0.33659,-0.279297 0.043,-0.5299492 -0.11459,-0.1718754 -0.0143,-0.2506516 h -0.16471 z" />
   <rect
      id="fill-lin-copy"
      style="fill:url(#linearGradient2199);fill-opacity:1"
      width="32" height="32" x="59" y="334.0777" />
   <rect
      id="fill-none-stroke-lin"
      style="fill:none;fill-opacity:1;stroke:url(#linearGradient1042);stroke-width:2"
      width="30" height="30" x="85" y="289" />
   <rect
      id="fill-rad"
      style="fill:url(#radialGradient1050)"
      width="32" height="32" x="34" y="289" />
   <rect
      id="fill-lin-stroke-color"
      style="fill:url(#linearGradient984);stroke:#e0af29;stroke-width:2;"
      width="30" height="30" x="85" y="244"  />
   <rect
      id="fill-lin"
      style="fill:url(#linearGradient976)"
      width="32" height="32" x="34" y="243" />
   <rect
      id="fill-color-stroke-color"
      style="fill:#4e8dbf;stroke:#29e038;stroke-width:2"
      width="30" height="30" x="85" y="200" />
   <rect id="fill-color" style="fill:#4e8dbf" x="34" y="200"  width="32" height="32" />
   <g id="LOGO">
      <circle id="logo-circle" style="fill:none;stroke:#272727;stroke-width:6;"
      cx="74.25" cy="95" r="30"  />
      <g>
         <path id="o--logo-text" d="m 58.65,91.31 q 1.54,0 2.65,0.61 1.11,0.61 1.7,1.78 0.59,1.17 0.59,2.82 0,1.65 -0.59,2.83 -0.59,1.17 -1.7,1.78 -1.11,0.61 -2.65,0.61 h -4.14 q -0.21,0 -0.33,-0.07 -0.11,-0.07 -0.18,-0.26 -0.053,-0.19 -0.05,-0.56 0,-0.37 0.053,-0.56 0.062,-0.19 0.18,-0.26 0.11,-0.08 0.33,-0.08 h 0.85 v -6.83 h -0.85 q -0.21,0 -0.33,-0.07 -0.11,-0.07 -0.18,-0.26 -0.05,-0.19 -0.05,-0.56 0,-0.37 0.05,-0.56 0.06,-0.19 0.18,-0.26 0.11,-0.08 0.33,-0.08 z m -1.09,8.54 h 0.91 q 1.36,0 2.06,-0.84 0.69,-0.85 0.69,-2.49 0,-1.63 -0.69,-2.48 -0.69,-0.84 -2.06,-0.84 h -0.91 z" />
         <path id="m--logo-text" d="m 73.32,91.31 q 0.31,0 0.44,0.13 0.13,0.13 0.13,0.44 v 2.65 q 0,0.3 -0.25,0.43 -0.25,0.12 -0.82,0.12 -0.54,0 -0.75,-0.12 -0.2,-0.12 -0.2,-0.43 v -1.34 h -3.52 v 2.22 h 2.15 q 0.31,0 0.43,0.2 0.12,0.2 0.12,0.74707 0,0.54 -0.12,0.75 -0.12,0.19 -0.43,0.19 h -2.14 v 2.54 h 3.6 v -1.78 q 0,-0.3 0.25,-0.42 0.26,-0.13 0.85,-0.13 0.58,0 0.79,0.12 0.21,0.12 0.21,0.43 v 3.09 q 0,0.3 -0.13,0.44 -0.130.13 -0.44,0.13 H 65.3 q -0.21,0 -0.33,-0.07 -0.11,-0.07 -0.18,-0.26 -0.05,-0.19 -0.05,-0.56 0,-0.37 0.05,-0.56 0.06,-0.19 0.18,-0.26 0.11,-0.08 0.33,-0.08 h 0.85 V 93.11 H 65.3 q -0.21,0 -0.33,-0.07 -0.11,-0.07 -0.18,-0.26 -0.05,-0.19 -0.05,-0.56 0,-0.37 0.05,-0.56 0.06,-0.19 0.18,-0.26 0.11,-0.08 0.33,-0.08 z" />
         <path id="e--logo-text" d="m 85,91.31 q 0.21,0 0.32,0.08 0.11,0.07 0.17,0.26 0.06,0.19 0.06,0.56 0,0.37 -0.06,0.56 -0.05,0.19 -0.17,0.26 -0.11,0.07 -0.33,0.07 h -0.47 l 0.12,6.83 h 0.53 q 0.21,0 0.33,0.08 0.11,0.07 0.17,0.26 0.06,0.19 0.06,0.56 0,0.37 -0.06,0.56 -0.053,0.19 -0.17,0.26 -0.11,0.07 -0.33,0.07 h -3.29 q -0.21,0 -0.33,-0.0703 -0.11,-0.070.18,-0.26 -0.05,-0.19 -0.05,-0.56 0,-0.37 0.05,-0.56 0.06,-0.19 0.18,-0.26 0.11,-0.08 0.33,-0.08 h 0.81 l -0.05,-5.2 -1.33,3.59 q -0.11,0.31 -0.32,0.44 -0.2,0.12 -0.57,0.12 -0.38,0 -0.58,-0.12 -0.2,-0.13 -0.33,-0.44 l -1.34,-3.56 -0.05,5.18 h 0.82 q 0.21,0 0.33,0.08 0.11,0.0703 0.17,0.26 0.06,0.19 0.06,0.56 0,0.37 -0.06,0.56 -0.05,0.19 -0.17,0.26 -0.11,0.07 -0.33,0.07 h -3.29 q -0.21,0 -0.33,-0.07 -0.11,-0.07 -0.18,-0.26 -0.05,-0.19 -0.053,-0.56 0,-0.37 0.05,-0.56 0.06,-0.19 0.18,-0.26 0.11,-0.08 0.33,-0.08 h 0.52 l 0.13,-6.83 h -0.47 q -0.21,0 -0.33,-0.07 -0.11,-0.07 -0.18,-0.26 -0.05,-0.19 -0.05,-0.56 0,-0.37 0.05,-0.56 0.06,-0.19 0.18,-0.26 0.11,-0.08 0.33,-0.08 h 2.5 q 0.18,0 0.3,0.06 0.12,0.06 0.18,0.21 l 1.61,4.32 1.6,-4.32 q 0.05,-0.15 0.17,-0.21 0.12,-0.06 0.31,-0.06 z" />
         <path id="d--logo-text" d="m 91.2,91.12 q 1.44,0 2.54,0.66 1.1,0.65 1.7,1.88 0.61,1.22 0.61,2.87 0,1.64 -0.61,2.87 -0.6,1.22 -1.7,1.88 -1.1,0.66 -2.54,0.66 -1.44,0 -2.54,-0.66 -1.1,-0.66 -1.71,-1.88 -0.6,-1.23 -0.6,-2.87 0,-1.64 0.6,-2.87 0.61,-1.23 1.71,-1.88 1.1,-0.66 2.54,-0.66 z m 0,2 q -1.22,0 -1.85,0.88 -0.63,0.88 -0.63,2.53 0,1.65 0.63,2.54 0.63,0.88 1.85,0.88 1.22,0 1.85,-0.88 0.63,-0.88 0.63,-2.54 0,-1.65 -0.63,-2.53 -0.63,-0.88 -1.85,-0.88 z" />
      </g>
   </g>
</svg>